<mxfile host="app.diagrams.net" modified="2024-03-13T15:43:17.734Z" agent="Mozilla/5.0 (X11; Linux x86_64; rv:123.0) Gecko/20100101 Firefox/123.0" etag="8rcmiBK6x3lyCX2Y0rbh" version="24.0.5" type="github">
  <diagram name="Pagina-1" id="gPWjSC0sNMpcJGo77wKc">
    <mxGraphModel dx="1029" dy="634" grid="1" gridSize="10" guides="1" tooltips="1" connect="1" arrows="1" fold="1" page="1" pageScale="1" pageWidth="827" pageHeight="1169" math="0" shadow="0">
      <root>
        <mxCell id="0" />
        <mxCell id="1" parent="0" />
        <mxCell id="D8RpLal6LioXR98MJQWB-118" value="" style="ellipse;whiteSpace=wrap;html=1;dashed=1;fillColor=none;strokeColor=#000000;" parent="1" vertex="1">
          <mxGeometry x="271" y="30" width="290" height="140" as="geometry" />
        </mxCell>
        <mxCell id="D8RpLal6LioXR98MJQWB-117" value="" style="ellipse;whiteSpace=wrap;html=1;dashed=1;fillColor=none;strokeColor=#000000;" parent="1" vertex="1">
          <mxGeometry x="70" y="210" width="730" height="530" as="geometry" />
        </mxCell>
        <mxCell id="D8RpLal6LioXR98MJQWB-3" value="" style="ellipse;whiteSpace=wrap;html=1;dashed=1;fillColor=none;strokeColor=#999900;" parent="1" vertex="1">
          <mxGeometry x="74" y="370" width="310" height="200" as="geometry" />
        </mxCell>
        <mxCell id="D8RpLal6LioXR98MJQWB-12" style="edgeStyle=none;rounded=0;orthogonalLoop=1;jettySize=auto;html=1;exitX=1;exitY=1;exitDx=0;exitDy=0;endArrow=baseDash;endFill=0;entryX=0.102;entryY=0.129;entryDx=0;entryDy=0;entryPerimeter=0;" parent="1" source="D8RpLal6LioXR98MJQWB-5" target="D8RpLal6LioXR98MJQWB-7" edge="1">
          <mxGeometry relative="1" as="geometry" />
        </mxCell>
        <mxCell id="D8RpLal6LioXR98MJQWB-13" style="edgeStyle=none;rounded=0;orthogonalLoop=1;jettySize=auto;html=1;exitX=1;exitY=0;exitDx=0;exitDy=0;" parent="1" source="D8RpLal6LioXR98MJQWB-5" target="D8RpLal6LioXR98MJQWB-6" edge="1">
          <mxGeometry relative="1" as="geometry" />
        </mxCell>
        <mxCell id="D8RpLal6LioXR98MJQWB-5" value="a" style="ellipse;whiteSpace=wrap;html=1;" parent="1" vertex="1">
          <mxGeometry x="100" y="453" width="50" height="40" as="geometry" />
        </mxCell>
        <mxCell id="D8RpLal6LioXR98MJQWB-14" style="edgeStyle=none;rounded=0;orthogonalLoop=1;jettySize=auto;html=1;exitX=1;exitY=0.5;exitDx=0;exitDy=0;entryX=0;entryY=0.5;entryDx=0;entryDy=0;" parent="1" source="D8RpLal6LioXR98MJQWB-6" target="D8RpLal6LioXR98MJQWB-9" edge="1">
          <mxGeometry relative="1" as="geometry" />
        </mxCell>
        <mxCell id="D8RpLal6LioXR98MJQWB-15" style="edgeStyle=none;rounded=0;orthogonalLoop=1;jettySize=auto;html=1;exitX=1;exitY=1;exitDx=0;exitDy=0;entryX=0;entryY=0;entryDx=0;entryDy=0;" parent="1" source="D8RpLal6LioXR98MJQWB-6" target="D8RpLal6LioXR98MJQWB-8" edge="1">
          <mxGeometry relative="1" as="geometry" />
        </mxCell>
        <mxCell id="D8RpLal6LioXR98MJQWB-6" value="c" style="ellipse;whiteSpace=wrap;html=1;" parent="1" vertex="1">
          <mxGeometry x="171" y="402" width="50" height="40" as="geometry" />
        </mxCell>
        <mxCell id="D8RpLal6LioXR98MJQWB-16" style="edgeStyle=none;rounded=0;orthogonalLoop=1;jettySize=auto;html=1;exitX=1;exitY=0.5;exitDx=0;exitDy=0;" parent="1" source="D8RpLal6LioXR98MJQWB-7" target="D8RpLal6LioXR98MJQWB-8" edge="1">
          <mxGeometry relative="1" as="geometry" />
        </mxCell>
        <mxCell id="D8RpLal6LioXR98MJQWB-7" value="b" style="ellipse;whiteSpace=wrap;html=1;" parent="1" vertex="1">
          <mxGeometry x="170" y="508" width="50" height="40" as="geometry" />
        </mxCell>
        <mxCell id="D8RpLal6LioXR98MJQWB-17" style="edgeStyle=none;rounded=0;orthogonalLoop=1;jettySize=auto;html=1;exitX=1;exitY=0;exitDx=0;exitDy=0;entryX=0.159;entryY=0.917;entryDx=0;entryDy=0;endArrow=baseDash;endFill=0;entryPerimeter=0;" parent="1" source="D8RpLal6LioXR98MJQWB-8" target="D8RpLal6LioXR98MJQWB-10" edge="1">
          <mxGeometry relative="1" as="geometry" />
        </mxCell>
        <mxCell id="D8RpLal6LioXR98MJQWB-8" value="d" style="ellipse;whiteSpace=wrap;html=1;" parent="1" vertex="1">
          <mxGeometry x="250" y="508" width="50" height="40" as="geometry" />
        </mxCell>
        <mxCell id="D8RpLal6LioXR98MJQWB-9" value="e" style="ellipse;whiteSpace=wrap;html=1;" parent="1" vertex="1">
          <mxGeometry x="251" y="402" width="50" height="40" as="geometry" />
        </mxCell>
        <mxCell id="D8RpLal6LioXR98MJQWB-10" value="f" style="ellipse;whiteSpace=wrap;html=1;" parent="1" vertex="1">
          <mxGeometry x="301" y="455" width="50" height="40" as="geometry" />
        </mxCell>
        <mxCell id="D8RpLal6LioXR98MJQWB-109" style="edgeStyle=none;rounded=0;orthogonalLoop=1;jettySize=auto;html=1;exitX=0.692;exitY=0.044;exitDx=0;exitDy=0;entryX=-0.004;entryY=0.359;entryDx=0;entryDy=0;exitPerimeter=0;entryPerimeter=0;" parent="1" source="D8RpLal6LioXR98MJQWB-46" target="D8RpLal6LioXR98MJQWB-83" edge="1">
          <mxGeometry relative="1" as="geometry" />
        </mxCell>
        <mxCell id="En2KzqsClIfj5qpVhYQP-1" value="0t, 2t, 3t" style="edgeLabel;html=1;align=center;verticalAlign=middle;resizable=0;points=[];rotation=-20;" vertex="1" connectable="0" parent="D8RpLal6LioXR98MJQWB-109">
          <mxGeometry x="-0.3493" y="1" relative="1" as="geometry">
            <mxPoint x="11" y="-3" as="offset" />
          </mxGeometry>
        </mxCell>
        <mxCell id="D8RpLal6LioXR98MJQWB-111" style="edgeStyle=none;rounded=0;orthogonalLoop=1;jettySize=auto;html=1;exitX=1;exitY=0.5;exitDx=0;exitDy=0;entryX=0;entryY=0.5;entryDx=0;entryDy=0;" parent="1" source="D8RpLal6LioXR98MJQWB-46" target="D8RpLal6LioXR98MJQWB-65" edge="1">
          <mxGeometry relative="1" as="geometry" />
        </mxCell>
        <mxCell id="En2KzqsClIfj5qpVhYQP-3" value="2t, 4t" style="edgeLabel;html=1;align=center;verticalAlign=middle;resizable=0;points=[];" vertex="1" connectable="0" parent="D8RpLal6LioXR98MJQWB-111">
          <mxGeometry x="-0.1059" y="-1" relative="1" as="geometry">
            <mxPoint as="offset" />
          </mxGeometry>
        </mxCell>
        <mxCell id="D8RpLal6LioXR98MJQWB-46" value="t0" style="ellipse;whiteSpace=wrap;html=1;strokeColor=#999900;" parent="1" vertex="1">
          <mxGeometry x="278" y="80" width="50" height="40" as="geometry" />
        </mxCell>
        <mxCell id="D8RpLal6LioXR98MJQWB-49" value="" style="ellipse;whiteSpace=wrap;html=1;dashed=1;fillColor=none;strokeColor=#990000;" parent="1" vertex="1">
          <mxGeometry x="485" y="375" width="310" height="200" as="geometry" />
        </mxCell>
        <mxCell id="D8RpLal6LioXR98MJQWB-50" style="edgeStyle=none;rounded=0;orthogonalLoop=1;jettySize=auto;html=1;exitX=1;exitY=1;exitDx=0;exitDy=0;endArrow=baseDash;endFill=0;entryX=0.102;entryY=0.129;entryDx=0;entryDy=0;entryPerimeter=0;" parent="1" source="D8RpLal6LioXR98MJQWB-52" target="D8RpLal6LioXR98MJQWB-57" edge="1">
          <mxGeometry relative="1" as="geometry" />
        </mxCell>
        <mxCell id="D8RpLal6LioXR98MJQWB-51" style="edgeStyle=none;rounded=0;orthogonalLoop=1;jettySize=auto;html=1;exitX=1;exitY=0;exitDx=0;exitDy=0;" parent="1" source="D8RpLal6LioXR98MJQWB-52" target="D8RpLal6LioXR98MJQWB-55" edge="1">
          <mxGeometry relative="1" as="geometry" />
        </mxCell>
        <mxCell id="D8RpLal6LioXR98MJQWB-52" value="a" style="ellipse;whiteSpace=wrap;html=1;" parent="1" vertex="1">
          <mxGeometry x="511" y="453" width="50" height="40" as="geometry" />
        </mxCell>
        <mxCell id="D8RpLal6LioXR98MJQWB-53" style="edgeStyle=none;rounded=0;orthogonalLoop=1;jettySize=auto;html=1;exitX=1;exitY=0.5;exitDx=0;exitDy=0;entryX=0;entryY=0.5;entryDx=0;entryDy=0;" parent="1" source="D8RpLal6LioXR98MJQWB-55" target="D8RpLal6LioXR98MJQWB-60" edge="1">
          <mxGeometry relative="1" as="geometry" />
        </mxCell>
        <mxCell id="D8RpLal6LioXR98MJQWB-54" style="edgeStyle=none;rounded=0;orthogonalLoop=1;jettySize=auto;html=1;exitX=1;exitY=1;exitDx=0;exitDy=0;entryX=0;entryY=0;entryDx=0;entryDy=0;" parent="1" source="D8RpLal6LioXR98MJQWB-55" target="D8RpLal6LioXR98MJQWB-59" edge="1">
          <mxGeometry relative="1" as="geometry" />
        </mxCell>
        <mxCell id="D8RpLal6LioXR98MJQWB-55" value="b" style="ellipse;whiteSpace=wrap;html=1;" parent="1" vertex="1">
          <mxGeometry x="582" y="402" width="50" height="40" as="geometry" />
        </mxCell>
        <mxCell id="D8RpLal6LioXR98MJQWB-56" style="edgeStyle=none;rounded=0;orthogonalLoop=1;jettySize=auto;html=1;exitX=1;exitY=0.5;exitDx=0;exitDy=0;" parent="1" source="D8RpLal6LioXR98MJQWB-57" target="D8RpLal6LioXR98MJQWB-59" edge="1">
          <mxGeometry relative="1" as="geometry" />
        </mxCell>
        <mxCell id="D8RpLal6LioXR98MJQWB-57" value="c" style="ellipse;whiteSpace=wrap;html=1;" parent="1" vertex="1">
          <mxGeometry x="581" y="508" width="50" height="40" as="geometry" />
        </mxCell>
        <mxCell id="D8RpLal6LioXR98MJQWB-58" style="edgeStyle=none;rounded=0;orthogonalLoop=1;jettySize=auto;html=1;exitX=1;exitY=0;exitDx=0;exitDy=0;entryX=0.159;entryY=0.917;entryDx=0;entryDy=0;endArrow=baseDash;endFill=0;entryPerimeter=0;" parent="1" source="D8RpLal6LioXR98MJQWB-59" target="D8RpLal6LioXR98MJQWB-61" edge="1">
          <mxGeometry relative="1" as="geometry" />
        </mxCell>
        <mxCell id="D8RpLal6LioXR98MJQWB-59" value="d" style="ellipse;whiteSpace=wrap;html=1;" parent="1" vertex="1">
          <mxGeometry x="661" y="508" width="50" height="40" as="geometry" />
        </mxCell>
        <mxCell id="D8RpLal6LioXR98MJQWB-60" value="e" style="ellipse;whiteSpace=wrap;html=1;" parent="1" vertex="1">
          <mxGeometry x="662" y="402" width="50" height="40" as="geometry" />
        </mxCell>
        <mxCell id="D8RpLal6LioXR98MJQWB-61" value="f" style="ellipse;whiteSpace=wrap;html=1;" parent="1" vertex="1">
          <mxGeometry x="712" y="455" width="50" height="40" as="geometry" />
        </mxCell>
        <mxCell id="D8RpLal6LioXR98MJQWB-65" value="t2" style="ellipse;whiteSpace=wrap;html=1;strokeColor=#990000;" parent="1" vertex="1">
          <mxGeometry x="499" y="80" width="50" height="40" as="geometry" />
        </mxCell>
        <mxCell id="D8RpLal6LioXR98MJQWB-67" value="" style="ellipse;whiteSpace=wrap;html=1;dashed=1;fillColor=none;strokeColor=#0000FF;" parent="1" vertex="1">
          <mxGeometry x="280" y="215" width="310" height="200" as="geometry" />
        </mxCell>
        <mxCell id="D8RpLal6LioXR98MJQWB-68" style="edgeStyle=none;rounded=0;orthogonalLoop=1;jettySize=auto;html=1;exitX=1;exitY=1;exitDx=0;exitDy=0;endArrow=baseDash;endFill=0;entryX=0.102;entryY=0.129;entryDx=0;entryDy=0;entryPerimeter=0;" parent="1" source="D8RpLal6LioXR98MJQWB-70" target="D8RpLal6LioXR98MJQWB-75" edge="1">
          <mxGeometry relative="1" as="geometry" />
        </mxCell>
        <mxCell id="D8RpLal6LioXR98MJQWB-69" style="edgeStyle=none;rounded=0;orthogonalLoop=1;jettySize=auto;html=1;exitX=1;exitY=0;exitDx=0;exitDy=0;" parent="1" source="D8RpLal6LioXR98MJQWB-70" target="D8RpLal6LioXR98MJQWB-73" edge="1">
          <mxGeometry relative="1" as="geometry" />
        </mxCell>
        <mxCell id="D8RpLal6LioXR98MJQWB-70" value="a" style="ellipse;whiteSpace=wrap;html=1;" parent="1" vertex="1">
          <mxGeometry x="306" y="300" width="50" height="40" as="geometry" />
        </mxCell>
        <mxCell id="D8RpLal6LioXR98MJQWB-71" style="edgeStyle=none;rounded=0;orthogonalLoop=1;jettySize=auto;html=1;exitX=1;exitY=0.5;exitDx=0;exitDy=0;entryX=0;entryY=0.5;entryDx=0;entryDy=0;" parent="1" source="D8RpLal6LioXR98MJQWB-73" target="D8RpLal6LioXR98MJQWB-78" edge="1">
          <mxGeometry relative="1" as="geometry" />
        </mxCell>
        <mxCell id="D8RpLal6LioXR98MJQWB-72" style="edgeStyle=none;rounded=0;orthogonalLoop=1;jettySize=auto;html=1;exitX=1;exitY=1;exitDx=0;exitDy=0;entryX=0;entryY=0;entryDx=0;entryDy=0;" parent="1" source="D8RpLal6LioXR98MJQWB-73" target="D8RpLal6LioXR98MJQWB-77" edge="1">
          <mxGeometry relative="1" as="geometry" />
        </mxCell>
        <mxCell id="D8RpLal6LioXR98MJQWB-73" value="c" style="ellipse;whiteSpace=wrap;html=1;" parent="1" vertex="1">
          <mxGeometry x="377" y="249" width="50" height="40" as="geometry" />
        </mxCell>
        <mxCell id="D8RpLal6LioXR98MJQWB-74" style="edgeStyle=none;rounded=0;orthogonalLoop=1;jettySize=auto;html=1;exitX=1;exitY=0.5;exitDx=0;exitDy=0;" parent="1" source="D8RpLal6LioXR98MJQWB-75" target="D8RpLal6LioXR98MJQWB-77" edge="1">
          <mxGeometry relative="1" as="geometry" />
        </mxCell>
        <mxCell id="D8RpLal6LioXR98MJQWB-75" value="b" style="ellipse;whiteSpace=wrap;html=1;" parent="1" vertex="1">
          <mxGeometry x="376" y="355" width="50" height="40" as="geometry" />
        </mxCell>
        <mxCell id="D8RpLal6LioXR98MJQWB-76" style="edgeStyle=none;rounded=0;orthogonalLoop=1;jettySize=auto;html=1;exitX=1;exitY=0;exitDx=0;exitDy=0;entryX=0.159;entryY=0.917;entryDx=0;entryDy=0;endArrow=baseDash;endFill=0;entryPerimeter=0;" parent="1" source="D8RpLal6LioXR98MJQWB-77" target="D8RpLal6LioXR98MJQWB-79" edge="1">
          <mxGeometry relative="1" as="geometry" />
        </mxCell>
        <mxCell id="D8RpLal6LioXR98MJQWB-77" value="d" style="ellipse;whiteSpace=wrap;html=1;" parent="1" vertex="1">
          <mxGeometry x="456" y="355" width="50" height="40" as="geometry" />
        </mxCell>
        <mxCell id="D8RpLal6LioXR98MJQWB-78" value="e" style="ellipse;whiteSpace=wrap;html=1;" parent="1" vertex="1">
          <mxGeometry x="457" y="249" width="50" height="40" as="geometry" />
        </mxCell>
        <mxCell id="D8RpLal6LioXR98MJQWB-79" value="f" style="ellipse;whiteSpace=wrap;html=1;" parent="1" vertex="1">
          <mxGeometry x="507" y="302" width="50" height="40" as="geometry" />
        </mxCell>
        <mxCell id="D8RpLal6LioXR98MJQWB-110" style="edgeStyle=none;rounded=0;orthogonalLoop=1;jettySize=auto;html=1;exitX=0.048;exitY=0.752;exitDx=0;exitDy=0;entryX=0.981;entryY=0.371;entryDx=0;entryDy=0;entryPerimeter=0;exitPerimeter=0;" parent="1" source="D8RpLal6LioXR98MJQWB-83" target="D8RpLal6LioXR98MJQWB-46" edge="1">
          <mxGeometry relative="1" as="geometry" />
        </mxCell>
        <mxCell id="En2KzqsClIfj5qpVhYQP-2" value="1t, 2t, 3t" style="edgeLabel;html=1;align=center;verticalAlign=middle;resizable=0;points=[];rotation=-20;" vertex="1" connectable="0" parent="D8RpLal6LioXR98MJQWB-110">
          <mxGeometry x="-0.4871" relative="1" as="geometry">
            <mxPoint x="-7" y="3" as="offset" />
          </mxGeometry>
        </mxCell>
        <mxCell id="D8RpLal6LioXR98MJQWB-83" value="t1" style="ellipse;whiteSpace=wrap;html=1;strokeColor=#0000FF;" parent="1" vertex="1">
          <mxGeometry x="388" y="40" width="50" height="40" as="geometry" />
        </mxCell>
        <mxCell id="D8RpLal6LioXR98MJQWB-85" value="" style="ellipse;whiteSpace=wrap;html=1;dashed=1;fillColor=none;strokeColor=#FF3399;" parent="1" vertex="1">
          <mxGeometry x="279" y="530" width="310" height="200" as="geometry" />
        </mxCell>
        <mxCell id="D8RpLal6LioXR98MJQWB-86" style="edgeStyle=none;rounded=0;orthogonalLoop=1;jettySize=auto;html=1;exitX=1;exitY=1;exitDx=0;exitDy=0;endArrow=baseDash;endFill=0;entryX=0.102;entryY=0.129;entryDx=0;entryDy=0;entryPerimeter=0;" parent="1" source="D8RpLal6LioXR98MJQWB-88" target="D8RpLal6LioXR98MJQWB-93" edge="1">
          <mxGeometry relative="1" as="geometry" />
        </mxCell>
        <mxCell id="D8RpLal6LioXR98MJQWB-87" style="edgeStyle=none;rounded=0;orthogonalLoop=1;jettySize=auto;html=1;exitX=1;exitY=0;exitDx=0;exitDy=0;" parent="1" source="D8RpLal6LioXR98MJQWB-88" target="D8RpLal6LioXR98MJQWB-91" edge="1">
          <mxGeometry relative="1" as="geometry" />
        </mxCell>
        <mxCell id="D8RpLal6LioXR98MJQWB-88" value="a" style="ellipse;whiteSpace=wrap;html=1;" parent="1" vertex="1">
          <mxGeometry x="305" y="615" width="50" height="40" as="geometry" />
        </mxCell>
        <mxCell id="D8RpLal6LioXR98MJQWB-89" style="edgeStyle=none;rounded=0;orthogonalLoop=1;jettySize=auto;html=1;exitX=1;exitY=0.5;exitDx=0;exitDy=0;entryX=0;entryY=0.5;entryDx=0;entryDy=0;" parent="1" source="D8RpLal6LioXR98MJQWB-91" target="D8RpLal6LioXR98MJQWB-96" edge="1">
          <mxGeometry relative="1" as="geometry" />
        </mxCell>
        <mxCell id="D8RpLal6LioXR98MJQWB-90" style="edgeStyle=none;rounded=0;orthogonalLoop=1;jettySize=auto;html=1;exitX=1;exitY=1;exitDx=0;exitDy=0;entryX=0;entryY=0;entryDx=0;entryDy=0;" parent="1" source="D8RpLal6LioXR98MJQWB-91" target="D8RpLal6LioXR98MJQWB-95" edge="1">
          <mxGeometry relative="1" as="geometry" />
        </mxCell>
        <mxCell id="D8RpLal6LioXR98MJQWB-91" value="c" style="ellipse;whiteSpace=wrap;html=1;" parent="1" vertex="1">
          <mxGeometry x="376" y="564" width="50" height="40" as="geometry" />
        </mxCell>
        <mxCell id="D8RpLal6LioXR98MJQWB-92" style="edgeStyle=none;rounded=0;orthogonalLoop=1;jettySize=auto;html=1;exitX=1;exitY=0.5;exitDx=0;exitDy=0;" parent="1" source="D8RpLal6LioXR98MJQWB-93" target="D8RpLal6LioXR98MJQWB-95" edge="1">
          <mxGeometry relative="1" as="geometry" />
        </mxCell>
        <mxCell id="D8RpLal6LioXR98MJQWB-93" value="b" style="ellipse;whiteSpace=wrap;html=1;" parent="1" vertex="1">
          <mxGeometry x="375" y="670" width="50" height="40" as="geometry" />
        </mxCell>
        <mxCell id="D8RpLal6LioXR98MJQWB-94" style="edgeStyle=none;rounded=0;orthogonalLoop=1;jettySize=auto;html=1;exitX=1;exitY=0;exitDx=0;exitDy=0;entryX=0.159;entryY=0.917;entryDx=0;entryDy=0;endArrow=baseDash;endFill=0;entryPerimeter=0;" parent="1" source="D8RpLal6LioXR98MJQWB-95" target="D8RpLal6LioXR98MJQWB-97" edge="1">
          <mxGeometry relative="1" as="geometry" />
        </mxCell>
        <mxCell id="D8RpLal6LioXR98MJQWB-95" value="d" style="ellipse;whiteSpace=wrap;html=1;" parent="1" vertex="1">
          <mxGeometry x="455" y="670" width="50" height="40" as="geometry" />
        </mxCell>
        <mxCell id="D8RpLal6LioXR98MJQWB-96" value="e" style="ellipse;whiteSpace=wrap;html=1;" parent="1" vertex="1">
          <mxGeometry x="456" y="564" width="50" height="40" as="geometry" />
        </mxCell>
        <mxCell id="D8RpLal6LioXR98MJQWB-97" value="f" style="ellipse;whiteSpace=wrap;html=1;" parent="1" vertex="1">
          <mxGeometry x="506" y="617" width="50" height="40" as="geometry" />
        </mxCell>
        <mxCell id="D8RpLal6LioXR98MJQWB-112" style="edgeStyle=none;rounded=0;orthogonalLoop=1;jettySize=auto;html=1;exitX=0;exitY=0.5;exitDx=0;exitDy=0;entryX=1;entryY=1;entryDx=0;entryDy=0;" parent="1" source="D8RpLal6LioXR98MJQWB-101" target="D8RpLal6LioXR98MJQWB-46" edge="1">
          <mxGeometry relative="1" as="geometry" />
        </mxCell>
        <mxCell id="En2KzqsClIfj5qpVhYQP-4" value="3t" style="edgeLabel;html=1;align=center;verticalAlign=middle;resizable=0;points=[];" vertex="1" connectable="0" parent="D8RpLal6LioXR98MJQWB-112">
          <mxGeometry x="-0.0612" relative="1" as="geometry">
            <mxPoint as="offset" />
          </mxGeometry>
        </mxCell>
        <mxCell id="D8RpLal6LioXR98MJQWB-114" style="edgeStyle=none;rounded=0;orthogonalLoop=1;jettySize=auto;html=1;exitX=1;exitY=0.5;exitDx=0;exitDy=0;entryX=0;entryY=1;entryDx=0;entryDy=0;" parent="1" source="D8RpLal6LioXR98MJQWB-101" target="D8RpLal6LioXR98MJQWB-65" edge="1">
          <mxGeometry relative="1" as="geometry" />
        </mxCell>
        <mxCell id="En2KzqsClIfj5qpVhYQP-5" value="5t" style="edgeLabel;html=1;align=center;verticalAlign=middle;resizable=0;points=[];" vertex="1" connectable="0" parent="D8RpLal6LioXR98MJQWB-114">
          <mxGeometry x="0.0092" y="1" relative="1" as="geometry">
            <mxPoint as="offset" />
          </mxGeometry>
        </mxCell>
        <mxCell id="D8RpLal6LioXR98MJQWB-101" value="t3" style="ellipse;whiteSpace=wrap;html=1;strokeColor=#FF3399;" parent="1" vertex="1">
          <mxGeometry x="388" y="120" width="50" height="40" as="geometry" />
        </mxCell>
        <mxCell id="D8RpLal6LioXR98MJQWB-115" value="" style="endArrow=none;dashed=1;html=1;dashPattern=1 3;strokeWidth=2;rounded=0;entryX=0.036;entryY=0.326;entryDx=0;entryDy=0;exitX=0.117;exitY=0.176;exitDx=0;exitDy=0;exitPerimeter=0;entryPerimeter=0;" parent="1" source="D8RpLal6LioXR98MJQWB-117" target="D8RpLal6LioXR98MJQWB-118" edge="1">
          <mxGeometry width="50" height="50" relative="1" as="geometry">
            <mxPoint x="70" y="470" as="sourcePoint" />
            <mxPoint x="80" y="100" as="targetPoint" />
          </mxGeometry>
        </mxCell>
        <mxCell id="D8RpLal6LioXR98MJQWB-116" value="" style="endArrow=none;dashed=1;html=1;dashPattern=1 3;strokeWidth=2;rounded=0;entryX=0.951;entryY=0.266;entryDx=0;entryDy=0;exitX=0.895;exitY=0.196;exitDx=0;exitDy=0;exitPerimeter=0;entryPerimeter=0;" parent="1" source="D8RpLal6LioXR98MJQWB-117" target="D8RpLal6LioXR98MJQWB-118" edge="1">
          <mxGeometry width="50" height="50" relative="1" as="geometry">
            <mxPoint x="800" y="400" as="sourcePoint" />
            <mxPoint x="380" y="100" as="targetPoint" />
          </mxGeometry>
        </mxCell>
        <mxCell id="En2KzqsClIfj5qpVhYQP-6" value="&lt;div align=&quot;left&quot;&gt;&lt;font face=&quot;Verdana&quot;&gt;Agents temporal &lt;br&gt;&lt;/font&gt;&lt;/div&gt;&lt;div align=&quot;left&quot;&gt;&lt;font face=&quot;vIOQpKhhw21pUGHrhAOD&quot;&gt;communication&lt;/font&gt;&lt;/div&gt;" style="text;html=1;align=left;verticalAlign=middle;resizable=0;points=[];autosize=1;strokeColor=none;fillColor=none;" vertex="1" parent="1">
          <mxGeometry x="590" y="30" width="120" height="50" as="geometry" />
        </mxCell>
        <mxCell id="En2KzqsClIfj5qpVhYQP-7" value="" style="endArrow=classic;html=1;rounded=0;entryX=0.961;entryY=0.293;entryDx=0;entryDy=0;entryPerimeter=0;" edge="1" parent="1" target="D8RpLal6LioXR98MJQWB-118">
          <mxGeometry width="50" height="50" relative="1" as="geometry">
            <mxPoint x="690" y="70" as="sourcePoint" />
            <mxPoint x="490" y="270" as="targetPoint" />
          </mxGeometry>
        </mxCell>
      </root>
    </mxGraphModel>
  </diagram>
</mxfile>
